#!OML:ASF F:\VICON\USERDATA\INSTALL\rory3\rory3.ASF
:FULLY-SPECIFIED
:DEGREES
513
root 12.7255 17.8382 11.855 -2.30771 13.3604 3.56731
lowerback 13.2751 1.2503 1.01883
upperback 0.935585 1.90131 1.2287
thorax -6.46988 0.920854 0.367232
lowerneck -22.4274 4.77615 -7.02542
upperneck 36.8874 9.85455 1.91582
head 16.6472 3.39533 4.06664
rclavicle 2.54444e-014 -3.26007e-014
rhumerus -36.9593 -23.5128 -67.0314
rradius 32.4442
rwrist 1.37609
rhand -17.6555 8.06087
rfingers 7.12502
rthumb 8.60276 -21.7439
lclavicle 2.54444e-014 -3.26007e-014
lhumerus -34.2867 16.9789 76.3737
lradius 33.2136
lwrist -6.74402
lhand -21.5568 22.8791
lfingers 7.12502
lthumb 4.83671 52.8038
rfemur -4.61495 -1.03478 18.0324
rtibia 31.8502
rfoot -18.4333 -6.2315
rtoes 0.223305
lfemur -15.0385 -2.30014 -12.714
ltibia 35.4254
lfoot -7.74182 2.78751
ltoes -6.52454
514
root 12.7831 17.8542 11.8611 -2.37744 13.1768 3.45443
lowerback 13.4084 1.27194 1.17016
upperback 0.91863 1.95337 1.1997
thorax -6.55629 0.940744 0.238361
lowerneck -22.4464 4.79488 -6.93506
upperneck 36.901 9.83258 1.9498
head 16.6618 3.40242 4.06425
rclavicle 3.45885e-014 7.95139e-015
rhumerus -37.0045 -23.2798 -67.1381
rradius 32.6311
rwrist 1.32871
rhand -17.7474 8.03906
rfingers 7.12502
rthumb 8.51408 -21.7693
lclavicle 3.45885e-014 7.95139e-015
lhumerus -34.5057 17.152 76.1591
lradius 33.0137
lwrist -6.3119
lhand -21.3767 21.4286
lfingers 7.12502
lthumb 5.01063 51.3494
rfemur -4.32747 -0.825487 17.957
rtibia 31.3944
rfoot -18.206 -6.16117
rtoes 0.294928
lfemur -14.9772 -2.63486 -12.0074
ltibia 34.7803
lfoot -6.86204 3.39612
ltoes -5.84038
515
root 12.8445 17.8732 11.8688 -2.34172 13.0272 3.51252
lowerback 13.396 1.26525 1.13113
upperback 0.912385 1.93629 1.16979
thorax -6.5562 0.933033 0.232221
lowerneck -22.431 4.8171 -6.92906
upperneck 36.9006 9.86071 1.94943
head 16.6562 3.41467 4.06723
rclavicle -1.35174e-014 1.59028e-015
rhumerus -36.9213 -22.9666 -67.2643
rradius 32.7651
rwrist 1.3494
rhand -17.8221 8.1838
rfingers 7.12502
rthumb 8.44204 -21.6275
lclavicle -1.35174e-014 1.59028e-015
lhumerus -34.68 17.5936 75.8971
lradius 32.6736
lwrist -6.28037
lhand -21.335 22.5938
lfingers 7.12502
lthumb 5.05089 52.5136
rfemur -4.09126 -0.754965 17.6726
rtibia 31.0057
rfoot -18.0353 -6.0541
rtoes -0.240688
lfemur -14.9819 -3.06871 -11.4943
ltibia 34.1463
lfoot -6.01427 3.89051
ltoes -5.53932
516
root 12.9065 17.8798 11.8719 -2.32789 12.9078 3.46608
lowerback 13.3759 1.21571 1.20117
upperback 0.924238 1.88038 1.16872
thorax -6.53019 0.903885 0.202664
lowerneck -22.4972 4.84497 -6.98663
upperneck 36.8723 9.93144 1.94355
head 16.6498 3.434 4.08842
rclavicle -6.16232e-015 9.54166e-015
rhumerus -36.7747 -22.6688 -67.423
rradius 32.9213
rwrist 1.3848
rhand -17.7113 8.0444
rfingers 7.12502
rthumb 8.54899 -21.7625
lclavicle -6.16232e-015 9.54166e-015
lhumerus -34.8273 18.1681 75.6276
lradius 32.3545
lwrist -6.29555
lhand -21.0995 23.5654
lfingers 7.12502
lthumb 5.27832 53.4797
rfemur -3.88894 -0.602 17.5228
rtibia 30.6928
rfoot -17.9669 -6.03438
rtoes 0.166391
lfemur -14.8956 -3.4362 -10.8559
ltibia 33.5231
lfoot -5.335 4.25191
ltoes -4.71406
517
root 12.9698 17.8856 11.8751 -2.34719 12.705 3.43178
lowerback 13.4147 1.23214 1.23108
upperback 0.956369 1.90696 1.17154
thorax -6.51673 0.916172 0.183292
lowerneck -22.5882 4.89297 -6.98942
upperneck 36.8268 10.0365 1.87683
head 16.6474 3.46618 4.08129
rclavicle 6.55989e-015 3.97569e-015
rhumerus -36.6621 -22.4716 -67.501
rradius 33.0655
rwrist 1.54825
rhand -17.5679 7.62538
rfingers 7.12502
rthumb 8.68731 -22.1759
lclavicle 6.55989e-015 3.97569e-015
lhumerus -34.9034 18.7069 75.4195
lradius 32.0067
lwrist -6.18695
lhand -20.9274 23.5667
lfingers 7.12502
lthumb 5.44443 53.4768
rfemur -3.70887 -0.354245 17.375
rtibia 30.4445
rfoot -17.8713 -6.10614
rtoes -0.221212
lfemur -14.7184 -3.68218 -10.2243
ltibia 32.9079
lfoot -4.76305 4.38989
ltoes -4.27906
518
root 13.0363 17.8941 11.881 -2.36195 12.5146 3.50109
lowerback 13.4904 1.2522 1.17072
upperback 0.957176 1.92607 1.17433
thorax -6.56012 0.926872 0.214971
lowerneck -22.5625 4.94824 -7.03906
upperneck 36.7897 10.1822 1.76431
head 16.6208 3.50449 4.064
rclavicle -2.42517e-014 -2.06736e-014
rhumerus -36.4965 -22.2195 -67.5129
rradius 33.0076
rwrist 1.74759
rhand -17.4301 7.70514
rfingers 7.12502
rthumb 8.82032 -22.0905
lclavicle -2.42517e-014 -2.06736e-014
lhumerus -35.0184 19.1481 75.263
lradius 31.5764
lwrist -6.18391
lhand -21.1305 23.0382
lfingers 7.12502
lthumb 5.24831 52.9532
rfemur -3.51914 -0.139096 17.0863
rtibia 30.2351
rfoot -17.7806 -6.14919
rtoes -0.91126
lfemur -14.5495 -3.95625 -9.73055
ltibia 32.3389
lfoot -4.07963 4.36872
ltoes -5.07236
519
root 13.1014 17.9022 11.884 -2.35938 12.3429 3.57322
lowerback 13.6524 1.24426 1.12671
upperback 0.897809 1.90913 1.12136
thorax -6.71336 0.917677 0.182679
lowerneck -22.4538 5.02621 -7.06437
upperneck 36.6925 10.2612 1.82843
head 16.5302 3.55299 4.09762
rclavicle 9.24349e-015 -4.77083e-015
rhumerus -36.4369 -22.095 -67.5444
rradius 33.032
rwrist 2.36972
rhand -17.1464 7.52748
rfingers 7.12502
rthumb 9.09405 -22.2565
lclavicle 9.24349e-015 -4.77083e-015
lhumerus -35.246 19.2848 75.0417
lradius 31.2982
lwrist -6.10385
lhand -21.1548 22.7208
lfingers 7.12502
lthumb 5.22491 52.6364
rfemur -3.33381 0.100805 16.7992
rtibia 29.9714
rfoot -17.6539 -6.16093
rtoes -1.57766
lfemur -14.4356 -4.23229 -9.23868
ltibia 31.812
lfoot -3.31424 4.30743
ltoes -5.57582
520
root 13.1694 17.9093 11.886 -2.35746 12.233 3.55368
lowerback 13.7323 1.22878 1.18941
upperback 0.867227 1.89688 1.07468
thorax -6.78694 0.908364 0.0981378
lowerneck -22.4266 5.11003 -7.13727
upperneck 36.6077 10.3078 2.06347
head 16.4471 3.60599 4.21067
rclavicle -1.02374e-014 4.77083e-015
rhumerus -36.4765 -22.0112 -67.5615
rradius 33.1965
rwrist 3.02981
rhand -16.8101 7.11682
rfingers 7.12502
rthumb 9.41856 -22.6527
lclavicle -1.02374e-014 4.77083e-015
lhumerus -35.3878 19.6186 74.766
lradius 30.9231
lwrist -6.33416
lhand -21.1662 22.8523
lfingers 7.12502
lthumb 5.21391 52.7681
rfemur -3.1154 0.190083 16.5829
rtibia 29.6429
rfoot -17.5649 -6.1456
rtoes -2.04251
lfemur -14.3347 -4.52289 -8.64603
ltibia 31.3295
lfoot -2.57675 4.27049
ltoes -5.94574
521
root 13.2414 17.926 11.8947 -2.35934 12.0866 3.58727
lowerback 13.6014 1.2392 1.16124
upperback 0.964966 1.90146 1.06524
thorax -6.61021 0.912968 0.107357
lowerneck -22.5748 5.12434 -7.10051
upperneck 36.5865 10.3705 1.95389
head 16.481 3.61592 4.17609
rclavicle -4.69132e-014 1.43125e-014
rhumerus -36.2717 -21.9738 -67.5853
rradius 33.1226
rwrist 3.33779
rhand -16.8659 7.52316
rfingers 7.12502
rthumb 9.36472 -22.2488
lclavicle -4.69132e-014 1.43125e-014
lhumerus -35.4172 19.9673 74.6731
lradius 30.6507
lwrist -6.55145
lhand -21.26 22.9358
lfingers 7.12502
lthumb 5.12331 52.8538
rfemur -2.86705 0.198269 16.2836
rtibia 29.3352
rfoot -17.511 -6.07239
rtoes -2.80678
lfemur -14.2273 -4.8224 -8.13225
ltibia 30.9069
lfoot -1.76967 4.34539
ltoes -5.07754
